<?xml version="1.0" standalone="no"?>
<!DOCTYPE svg PUBLIC "-//W3C//DTD SVG 20010904//EN"
 "http://www.w3.org/TR/2001/REC-SVG-20010904/DTD/svg10.dtd">
<svg version="1.0" xmlns="http://www.w3.org/2000/svg"
 width="217.000000pt" height="232.000000pt" viewBox="0 0 217.000000 232.000000"
 preserveAspectRatio="xMidYMid meet">

<g transform="translate(0.000000,232.000000) scale(0.100000,-0.100000)"
fill="#000000" stroke="none">
<path d="M972 2067 c-67 -21 -172 -142 -134 -155 17 -5 15 -42 -3 -42 -25 0
-19 -78 11 -138 58 -116 197 -161 315 -101 50 25 104 91 119 145 13 45 8 142
-7 153 -5 3 -9 13 -11 21 -6 26 -33 61 -43 55 -5 -4 -8 -1 -7 6 2 6 -21 25
-51 40 -57 31 -125 37 -189 16z m108 -64 c0 -9 3 -14 6 -10 8 8 64 -44 64 -60
0 -7 -12 -18 -26 -23 -21 -8 -29 -6 -43 12 -11 13 -24 19 -34 15 -32 -12 -17
-37 36 -61 28 -12 57 -29 63 -37 12 -15 24 -100 13 -93 -3 2 -14 -5 -24 -16
-10 -11 -24 -20 -31 -20 -10 0 -12 -9 -7 -32 6 -29 5 -31 -18 -25 -13 4 -30 7
-36 7 -7 0 -13 8 -13 18 0 25 -43 45 -60 29 -10 -9 -11 -9 -6 0 4 7 0 26 -9
44 -19 36 -20 34 22 42 26 5 33 3 38 -14 9 -27 68 -23 73 5 2 10 0 16 -6 12
-6 -3 -12 -2 -14 3 -1 4 -24 18 -50 29 -80 35 -90 104 -21 147 18 11 32 26 33
33 0 19 50 15 50 -5z"/>
<path d="M1530 1784 c-41 -7 -94 -20 -117 -29 -81 -31 -153 -142 -170 -263 -6
-42 -5 -44 13 -34 11 6 61 49 112 97 51 48 92 83 92 77 0 -5 -7 -15 -15 -22
-8 -7 -12 -17 -8 -24 3 -6 2 -8 -2 -3 -11 9 -66 -43 -59 -55 3 -5 0 -7 -7 -6
-7 2 -14 -4 -14 -12 0 -8 -6 -14 -11 -13 -6 1 -26 -14 -44 -32 l-34 -35 27 0
c22 0 27 5 27 25 0 16 6 25 15 25 8 0 15 -9 15 -21 0 -17 4 -19 23 -13 83 25
174 100 211 173 15 27 15 31 1 31 -9 0 -15 9 -15 25 0 29 15 33 29 8 10 -18 9
-20 26 90 5 31 10 30 -95 11z"/>
<path d="M616 1635 c-27 -7 -52 -17 -57 -22 -12 -12 100 -163 140 -190 44 -30
93 -43 161 -43 49 0 158 21 181 35 27 18 -109 168 -185 205 -60 29 -169 36
-240 15z m229 -180 c0 -10 -6 -20 -12 -22 -8 -3 -13 5 -13 22 0 17 5 25 13 23
6 -3 12 -13 12 -23z"/>
<path d="M1106 1541 c-4 -6 0 -42 10 -80 16 -62 16 -73 3 -129 l-16 -62 28 0
c15 0 29 7 33 16 10 25 7 146 -4 186 -13 46 -44 86 -54 69z"/>
<path d="M245 1277 c-3 -7 -4 -145 -3 -307 l3 -295 122 -3 c117 -2 147 3 204
35 3 2 88 -58 190 -133 101 -75 208 -148 238 -162 52 -24 58 -24 149 -15 85 9
99 14 118 37 15 16 33 26 51 26 31 0 93 34 93 50 0 5 11 10 25 10 31 0 72 38
81 74 3 14 21 34 40 46 l35 20 30 -23 c27 -19 46 -22 145 -26 63 -2 125 0 139
3 l25 6 0 304 c0 234 -3 305 -12 308 -14 6 -380 -75 -415 -91 -12 -6 -29 -22
-39 -36 -9 -14 -23 -25 -32 -25 -8 0 -67 21 -131 48 -144 58 -216 64 -293 20
-41 -23 -64 -27 -168 -33 -107 -7 -120 -6 -120 9 0 8 -12 30 -28 47 -25 28
-43 34 -217 75 -208 48 -223 50 -230 31z m1007 -191 c46 -19 109 -42 140 -51
l57 -16 37 -95 c24 -61 40 -90 46 -82 8 14 12 0 9 -34 -1 -10 3 -18 9 -18 6 0
9 4 6 8 -2 4 -1 14 5 22 6 11 9 8 9 -12 0 -16 -5 -28 -11 -28 -11 0 -9 -16 6
-52 5 -13 -3 -22 -33 -37 l-39 -20 -29 30 c-16 17 -69 63 -119 102 -49 39
-121 95 -158 125 l-68 55 -57 -19 c-31 -10 -70 -29 -85 -41 -30 -24 -91 -31
-102 -12 -14 21 7 61 60 113 107 105 179 119 317 62z m-386 -48 c-9 -13 -23
-33 -32 -44 -26 -38 -28 -86 -4 -116 36 -47 120 -46 182 1 13 9 40 22 60 28
l37 11 128 -100 c210 -164 251 -212 203 -238 -24 -13 -58 11 -155 109 -60 62
-90 75 -102 44 -5 -12 18 -40 87 -105 51 -49 91 -90 89 -92 -2 -2 -14 -9 -27
-15 -29 -15 -46 -5 -142 85 -45 43 -75 64 -85 60 -31 -11 -14 -45 55 -109 39
-36 70 -70 70 -76 0 -14 -32 -29 -50 -23 -8 3 -52 38 -96 78 -45 41 -86 74
-92 74 -5 0 -15 -7 -23 -16 -11 -13 -3 -24 56 -79 38 -36 66 -67 63 -71 -13
-12 -75 17 -157 75 -49 35 -90 57 -100 54 -12 -3 -13 -2 -3 4 9 7 -22 34 -108
97 -66 48 -120 93 -120 99 1 7 25 71 53 142 l53 130 39 6 c22 3 62 7 89 8 l48
1 -16 -22z m-526 -7 c0 -6 -4 -12 -8 -15 -5 -3 -9 1 -9 9 0 8 4 15 9 15 4 0 8
-4 8 -9z m1269 -228 c-2 -28 -2 -28 -7 -3 l-5 25 -8 -25 -7 -25 -1 28 c-1 18
4 27 14 27 10 0 15 -9 14 -27z m18 -10 c-3 -10 -5 -4 -5 12 0 17 2 24 5 18 2
-7 2 -21 0 -30z m-1037 7 c0 -5 -5 -10 -11 -10 -5 0 -7 5 -4 10 3 6 8 10 11
10 2 0 4 -4 4 -10z"/>
<path d="M0 75 l0 -75 1085 0 1085 0 0 75 0 75 -1085 0 -1085 0 0 -75z m183
30 c43 0 47 -2 48 -25 1 -23 2 -23 9 5 7 28 8 27 9 -12 1 -35 -2 -43 -16 -43
-15 0 -16 2 -3 10 13 8 12 10 -2 10 -12 0 -19 8 -19 23 -2 20 -2 20 -7 -3 l-5
-25 -8 25 c-7 24 -7 24 -8 3 -1 -21 -6 -23 -51 -23 -51 0 -60 6 -38 28 9 9 9
12 -1 12 -7 0 -9 5 -6 11 4 6 13 8 21 5 8 -3 14 0 14 7 0 8 3 8 8 2 4 -6 28
-10 55 -10z m1710 -52 c-7 -2 -19 -2 -25 0 -7 3 -2 5 12 5 14 0 19 -2 13 -5z
m95 0 c-10 -2 -26 -2 -35 0 -10 3 -2 5 17 5 19 0 27 -2 18 -5z m90 0 c-10 -2
-26 -2 -35 0 -10 3 -2 5 17 5 19 0 27 -2 18 -5z"/>
<path d="M130 79 c0 -5 5 -7 10 -4 6 3 10 8 10 11 0 2 -4 4 -10 4 -5 0 -10 -5
-10 -11z"/>
</g>
</svg>
